<svg xmlns="http://www.w3.org/2000/svg" width="25" height="25" fill="none" viewBox="0 0 25 25">
  <mask id="a" width="24" height="24" x="0" y="0" maskUnits="userSpaceOnUse" style="mask-type: alpha">
    <path
      fill="#fff"
      fill-rule="evenodd"
      d="M2.953 0h17.72c1.63 0 2.952 1.343 2.952 3v18c0 1.657-1.322 3-2.953 3H2.953C1.323 24 0 22.657 0 21V3c0-1.657 1.322-3 2.953-3"
      clip-rule="evenodd"
    ></path>
  </mask>
  <g fill="#fff" fill-rule="evenodd" clip-rule="evenodd" mask="url(#a)">
    <path
      d="M14.536 8.598c-.504.067-2.472-1.177-6.24-3.233-3.288-1.794-2.392.754-2.102 1.45.04.099.05.207.024.31-.124.5-.2 2.385 3.63 6.529.152.165.216.331.096.523l-.041.069c-.525.854 5.018-5.963 4.633-5.648"
      opacity="0.56"
    ></path>
    <path
      d="M14.536 8.598c-.484-.106-.63-.218-2.33-4.21-1.272-2.987-2.5-.156-2.47.602a.5.5 0 0 1-.085.298c-.29.422-1.796 2.766.344 8.021.085.21.07.656-.05.867l-.042.07c-.525.854 5.018-5.963 4.633-5.648"
      opacity="0.32"
    ></path>
    <path
      d="M18.851 8c-.541-.051-.97-.968-1.907-.968-.98 0-2.022 1.25-2.408 1.566-.558.354-3.543.38-7.959.694-3.906.278-2.449 1.344-2 1.619.064.038.095.095.087.162-.039.325.48 1.763 5.073 2.715.43.09.166.457.166.457-.525.854-2.27 3.844-2.829 6.484-.113.536.405-.792 2.547-2.642s4.288-1.523 6.2-4.053c1.913-2.53.97-4.29 3.03-4.834L23.576 8s-4.674.005-4.725 0"
    ></path>
  </g>
</svg>
